<?xml version="1.0" encoding="UTF-8"?>
<svg width="256" height="256" viewBox="0 0 256 256" xmlns="http://www.w3.org/2000/svg" role="img" aria-label="Zorin Desktop Studio Icon">
  <defs>
    <linearGradient id="bg" x1="0" y1="0" x2="1" y2="1">
      <stop offset="0%" stop-color="#214a66"/>
      <stop offset="100%" stop-color="#3aa2d8"/>
    </linearGradient>
    <linearGradient id="screen" x1="0" y1="0" x2="1" y2="1">
      <stop offset="0%" stop-color="#f4f9ff"/>
      <stop offset="100%" stop-color="#d7e7f7"/>
    </linearGradient>
  </defs>

  <rect x="16" y="16" width="224" height="224" rx="52" fill="url(#bg)"/>

  <rect x="48" y="60" width="136" height="96" rx="14" fill="url(#screen)"/>
  <rect x="60" y="72" width="112" height="12" rx="6" fill="#7eb9dc"/>
  <rect x="60" y="94" width="68" height="8" rx="4" fill="#9dc7e2"/>
  <rect x="60" y="110" width="88" height="8" rx="4" fill="#9dc7e2"/>
  <rect x="60" y="126" width="52" height="8" rx="4" fill="#9dc7e2"/>

  <path d="M106 168h20l8 16H98l8-16z" fill="#cee0ef"/>
  <rect x="78" y="184" width="76" height="10" rx="5" fill="#d9e7f2"/>

  <circle cx="186" cy="164" r="34" fill="#10354d"/>
  <circle cx="186" cy="164" r="17" fill="#6dc6f0"/>

  <g fill="#9fe0ff">
    <rect x="184" y="122" width="4" height="16" rx="2"/>
    <rect x="184" y="190" width="4" height="16" rx="2"/>
    <rect x="144" y="162" width="16" height="4" rx="2"/>
    <rect x="212" y="162" width="16" height="4" rx="2"/>
    <rect x="156" y="136" width="12" height="4" rx="2" transform="rotate(-45 162 138)"/>
    <rect x="204" y="184" width="12" height="4" rx="2" transform="rotate(-45 210 186)"/>
    <rect x="204" y="136" width="12" height="4" rx="2" transform="rotate(45 210 138)"/>
    <rect x="156" y="184" width="12" height="4" rx="2" transform="rotate(45 162 186)"/>
  </g>
</svg>
